{"title":"Megamind.2012X.m4v","uid":6179616,"size":525495671,"categoryP":"video","categoryS":"handheld","magnet":"?xt=urn:btih:11d7cb4c28a73b9b7150e9ff494a4dec5bd505ec&amp;dn=Megamind.2012X.m4v&amp;tr=udp%3A%2F%2Ftracker.openbittorrent.com%3A80&amp;tr=udp%3A%2F%2Fopen.demonii.com%3A1337&amp;tr=udp%3A%2F%2Ftracker.coppersurfer.tk%3A6969&amp;tr=udp%3A%2F%2Fexodus.desync.com%3A6969","seeders":0,"leechers":1,"uploader":"2012X","files":-1,"time":1297901088,"description":" &lt;a href=&quot;http://www.imdb.com/title/tt1001526/&quot; rel=&quot;nofollow&quot; target=&quot;_NEW&quot;&gt;http://www.imdb.com/title/tt1001526/&lt;/a&gt;\n\n\nEncoded for iPad, iPod touch(new)and iPhone4\n\nSource 1080p Bluray\n\n\nID                               : 1\nFormat                           : AVC\nFormat/Info                      : Advanced Video Codec\nFormat profile                   : &lt;a class=&quot;__cf_email__&quot; href=&quot;/cdn-cgi/l/email-protection&quot; data-cfemail=&quot;90ddf1f9fed0dca3bea0&quot;&gt;[email&amp;#160;protected]&lt;/a&gt;&lt;script cf-hash='f9e31' type=&quot;text/javascript&quot;&gt;\n/* &lt;![CDATA[ */!function(){try{var t=&quot;currentScript&quot;in document?document.currentScript:function(){for(var t=document.getElementsByTagName(&quot;script&quot;),e=t.length;e--;)if(t[e].getAttribute(&quot;cf-hash&quot;))return t[e]}();if(t&amp;&amp;t.previousSibling){var e,r,n,i,c=t.previousSibling,a=c.getAttribute(&quot;data-cfemail&quot;);if(a){for(e=&quot;&quot;,r=parseInt(a.substr(0,2),16),n=2;a.length-n;n+=2)i=parseInt(a.substr(n,2),16)^r,e+=String.fromCharCode(i);e=document.createTextNode(e),c.parentNode.replaceChild(e,c)}}}catch(u){}}();/* ]]&gt; */&lt;/script&gt;\nFormat settings, CABAC           : Yes\nFormat settings, ReFrames        : 4 frames\nCodec ID                         : avc1\nCodec ID/Info                    : Advanced Video Coding\nDuration                         : 1h 35mn\nBit rate mode                    : Variable\nBit rate                         : 600 Kbps\nWidth                            : 960 pixels\nHeight                           : 416 pixels\nDisplay aspect ratio             : 2.35:1\nFrame rate mode                  : Variable\nFrame rate                       : 23.976 fps\nMinimum frame rate               : 23.419 fps\nMaximum frame rate               : 24.390 fps\nColor space                      : YUV\nChroma subsampling               : 4:2:0\nBit depth                        : 8 bits\nScan type                        : Progressive\nBits/(Pixel*Frame)               : 0.063\nStream size                      : 410 MiB (82%)\nWriting library                  : x264 core 114\n\nID                               : 2\nFormat                           : AAC\nFormat/Info                      : Advanced Audio Codec\nFormat version                   : Version 4\nFormat profile                   : LC\nFormat settings, SBR             : No\nCodec ID                         : 40\nDuration                         : 1h 35mn\nBit rate mode                    : Variable\nBit rate                         : 128 Kbps\nMaximum bit rate                 : 268 Kbps\nChannel(s)                       : 2 channels\nChannel positions                : Front: L R\nSampling rate                    : 48.0 KHz\nStream size                      : 87.3 MiB (17%)\n &lt;a href=&quot;\nhttp://img402.imageshack.us/i/megamind2012xm4vthumbs2.png/&quot; rel=&quot;nofollow&quot; target=&quot;_NEW&quot;&gt;\nhttp://img402.imageshack.us/i/megamind2012xm4vthumbs2.png/&lt;/a&gt;\n\n\n\n\n","torrent":{"xt":"urn:btih:11d7cb4c28a73b9b7150e9ff494a4dec5bd505ec","amp;dn":"Megamind.2012X.m4v","amp;tr":["udp%3A%2F%2Ftracker.openbittorrent.com%3A80","udp%3A%2F%2Fopen.demonii.com%3A1337","udp%3A%2F%2Ftracker.coppersurfer.tk%3A6969","udp%3A%2F%2Fexodus.desync.com%3A6969"],"infoHash":"11d7cb4c28a73b9b7150e9ff494a4dec5bd505ec","infoHashBuffer":{"type":"Buffer","data":[17,215,203,76,40,167,59,155,113,80,233,255,73,74,77,236,91,213,5,236]},"announce":[],"urlList":[]}}